<?xml version="1.0" encoding="iso-8859-1"?>
<!-- Generator: Adobe Illustrator 21.0.0, SVG Export Plug-In . SVG Version: 6.00 Build 0)  -->
<svg version="1.1" id="Capa_1" xmlns="http://www.w3.org/2000/svg" xmlns:xlink="http://www.w3.org/1999/xlink" x="0px" y="0px"
	 viewBox="0 0 512 512" style="enable-background:new 0 0 512 512;" xml:space="preserve">
<g>
	<g>
		<g>
			<path d="M486.4,392.533H375.467v-25.6c0-9.426-7.641-17.067-17.067-17.067h-59.733v-34.133H384c14.138,0,25.6-11.461,25.6-25.6
				v-68.267c0-14.138-11.462-25.6-25.6-25.6H238.933v-25.6c0-9.426-7.641-17.067-17.067-17.067h-59.733v-34.133H281.6
				c14.138,0,25.6-11.461,25.6-25.6V25.6c0-14.138-11.462-25.6-25.6-25.6h-256C11.461,0,0,11.461,0,25.6v68.267
				c0,14.138,11.461,25.6,25.6,25.6h119.467V153.6c0,9.426,7.641,17.067,17.067,17.067h59.733v25.6H128
				c-14.138,0-25.6,11.462-25.6,25.6v68.267c0,14.138,11.461,25.6,25.6,25.6h153.6v34.133c0,9.426,7.641,17.067,17.067,17.067H358.4
				v25.6h-128c-14.138,0-25.6,11.462-25.6,25.6V486.4c0,14.138,11.462,25.6,25.6,25.6h256c14.138,0,25.6-11.461,25.6-25.6v-68.267
				C512,403.995,500.539,392.533,486.4,392.533z M68.267,102.4H25.6c-4.713,0-8.533-3.821-8.533-8.533V25.6
				c0-4.713,3.82-8.533,8.533-8.533h42.667V102.4z M85.333,102.4V17.067H281.6c4.713,0,8.533,3.82,8.533,8.533v68.267
				c0,4.713-3.82,8.533-8.533,8.533H85.333z M170.667,298.667H128c-4.713,0-8.533-3.82-8.533-8.533v-68.267
				c0-4.713,3.82-8.533,8.533-8.533h42.667V298.667z M187.733,298.667v-85.333H384c4.713,0,8.533,3.82,8.533,8.533v68.267
				c0,4.713-3.82,8.533-8.533,8.533H187.733z M273.067,494.933H230.4c-4.713,0-8.533-3.82-8.533-8.533v-68.267
				c0-4.713,3.82-8.533,8.533-8.533h42.667V494.933z M494.933,486.4c0,4.713-3.82,8.533-8.533,8.533H290.133V409.6H486.4
				c4.713,0,8.533,3.82,8.533,8.533V486.4z"/>
			<path d="M256,34.133H119.467c-4.713,0-8.533,3.82-8.533,8.533s3.82,8.533,8.533,8.533H256c4.713,0,8.533-3.82,8.533-8.533
				S260.713,34.133,256,34.133z"/>
			<path d="M187.733,68.267h-68.267c-4.713,0-8.533,3.82-8.533,8.533s3.82,8.533,8.533,8.533h68.267c4.713,0,8.533-3.82,8.533-8.533
				S192.446,68.267,187.733,68.267z"/>
			<path d="M358.4,230.4H221.867c-4.713,0-8.533,3.82-8.533,8.533s3.82,8.533,8.533,8.533H358.4c4.713,0,8.533-3.82,8.533-8.533
				S363.113,230.4,358.4,230.4z"/>
			<path d="M290.133,264.533h-68.267c-4.713,0-8.533,3.821-8.533,8.533c0,4.713,3.82,8.533,8.533,8.533h68.267
				c4.713,0,8.533-3.821,8.533-8.533C298.667,268.354,294.846,264.533,290.133,264.533z"/>
			<path d="M460.8,426.667H324.267c-4.713,0-8.533,3.82-8.533,8.533s3.82,8.533,8.533,8.533H460.8c4.713,0,8.533-3.82,8.533-8.533
				S465.513,426.667,460.8,426.667z"/>
			<path d="M392.533,460.8h-68.267c-4.713,0-8.533,3.82-8.533,8.533s3.82,8.533,8.533,8.533h68.267c4.713,0,8.533-3.82,8.533-8.533
				S397.246,460.8,392.533,460.8z"/>
		</g>
	</g>
</g>
<g>
</g>
<g>
</g>
<g>
</g>
<g>
</g>
<g>
</g>
<g>
</g>
<g>
</g>
<g>
</g>
<g>
</g>
<g>
</g>
<g>
</g>
<g>
</g>
<g>
</g>
<g>
</g>
<g>
</g>
</svg>
